<svg id="Layer_1" data-name="Layer 1" xmlns="http://www.w3.org/2000/svg" viewBox="0 0 660 280"><defs><style>.cls-1{fill:#fed6d2;}.cls-2{fill:#ed4c41;}.cls-3{fill:#6d1413;}.cls-4{fill:#3c0a14;}</style></defs><circle class="cls-1" cx="140" cy="140" r="80"/><rect class="cls-2" x="84" y="84" width="112" height="112"/><polygon class="cls-3" points="140.09 177.34 173.2 120 106.99 120 140.09 177.34"/><path class="cls-4" d="M263.77,128.39a24,24,0,0,1,9.31-9.6,27,27,0,0,1,13.63-3.41q9.89,0,16.37,4.94a24.1,24.1,0,0,1,8.69,13.88h-14.5a10.56,10.56,0,0,0-3.89-5.43,11.3,11.3,0,0,0-6.77-2,11.1,11.1,0,0,0-9.12,4.18q-3.36,4.17-3.36,11.86t3.36,11.76a11.09,11.09,0,0,0,9.12,4.17q8.16,0,10.66-7.29h14.5A24.56,24.56,0,0,1,303,165.2q-6.52,5.1-16.32,5.09a26.86,26.86,0,0,1-13.63-3.41,24,24,0,0,1-9.31-9.6,32.73,32.73,0,0,1,0-28.89Z"/><path class="cls-4" d="M321.41,128.34a23.62,23.62,0,0,1,8.74-9.6,23.26,23.26,0,0,1,12.34-3.36,21.65,21.65,0,0,1,10.41,2.4,21.1,21.1,0,0,1,7.15,6v-7.59h13.54v53.19H360.05v-7.78a19.85,19.85,0,0,1-7.15,6.19,21.78,21.78,0,0,1-10.51,2.45,22.63,22.63,0,0,1-12.24-3.45,24.31,24.31,0,0,1-8.74-9.75,31.34,31.34,0,0,1-3.21-14.45A30.83,30.83,0,0,1,321.41,128.34Zm36.72,6.1a13.57,13.57,0,0,0-5.18-5.38,13.84,13.84,0,0,0-7-1.87,13.49,13.49,0,0,0-12.05,7.15,16.7,16.7,0,0,0-2,8.3,17.26,17.26,0,0,0,2,8.4,14.13,14.13,0,0,0,5.19,5.52,13.15,13.15,0,0,0,6.86,1.92,13.84,13.84,0,0,0,7-1.87,13.6,13.6,0,0,0,5.18-5.37,19.33,19.33,0,0,0,0-16.8Z"/><path class="cls-4" d="M386.5,128.34a23.55,23.55,0,0,1,8.74-9.6,23.25,23.25,0,0,1,12.33-3.36,21.69,21.69,0,0,1,10.42,2.4,21.19,21.19,0,0,1,7.15,6v-7.59h13.54v53.19H425.14v-7.78a19.94,19.94,0,0,1-7.15,6.19,21.81,21.81,0,0,1-10.51,2.45,22.63,22.63,0,0,1-12.24-3.45,24.24,24.24,0,0,1-8.74-9.75,31.34,31.34,0,0,1-3.21-14.45A30.83,30.83,0,0,1,386.5,128.34Zm36.72,6.1a13.57,13.57,0,0,0-5.18-5.38,13.84,13.84,0,0,0-7-1.87,13.49,13.49,0,0,0-12,7.15,16.71,16.71,0,0,0-2,8.3,17.26,17.26,0,0,0,2,8.4,14.13,14.13,0,0,0,5.19,5.52,13.15,13.15,0,0,0,6.86,1.92,13.84,13.84,0,0,0,7-1.87,13.6,13.6,0,0,0,5.18-5.37,19.34,19.34,0,0,0,0-16.8Z"/><path class="cls-4" d="M472,117.88a18.79,18.79,0,0,1,9.55-2.4v14.11H478q-6.35,0-9.56,3t-3.21,10.37v26.5H451.83V116.24h13.44v8.26A18.83,18.83,0,0,1,472,117.88Z"/><path class="cls-4" d="M541.49,116.24l-32.93,78.34h-14.3l11.52-26.5-21.31-51.84h15.07l13.73,37.16,13.92-37.16Z"/><path class="cls-4" d="M548.45,128.34a23.55,23.55,0,0,1,8.74-9.6,23.25,23.25,0,0,1,12.33-3.36,21.69,21.69,0,0,1,10.42,2.4,21.19,21.19,0,0,1,7.15,6v-7.59h13.54v53.19H587.09v-7.78a19.94,19.94,0,0,1-7.15,6.19,21.81,21.81,0,0,1-10.51,2.45,22.63,22.63,0,0,1-12.24-3.45,24.24,24.24,0,0,1-8.74-9.75,31.35,31.35,0,0,1-3.22-14.45A30.83,30.83,0,0,1,548.45,128.34Zm36.72,6.1a13.57,13.57,0,0,0-5.18-5.38,13.87,13.87,0,0,0-7-1.87,13.49,13.49,0,0,0-12.05,7.15,16.71,16.71,0,0,0-2,8.3,17.26,17.26,0,0,0,2,8.4,14.17,14.17,0,0,0,5.18,5.52,13.18,13.18,0,0,0,6.87,1.92,13.87,13.87,0,0,0,7-1.87,13.6,13.6,0,0,0,5.18-5.37,19.34,19.34,0,0,0,0-16.8Z"/></svg>